{
  "tempo": 128,
  "time_signature": [
    4,
    4
  ],
  "notes": [
    {
      "pitch": 36,
      "velocity": 127,
      "duration": 0.5,
      "start": 0.0
    },
    {
      "pitch": 36,
      "velocity": 127,
      "duration": 0.5,
      "start": 0.5
    },
    {
      "pitch": 36,
      "velocity": 127,
      "duration": 0.5,
      "start": 1.0
    },
    {
      "pitch": 36,
      "velocity": 127,
      "duration": 0.5,
      "start": 1.5
    },
    {
      "pitch": 36,
      "velocity": 127,
      "duration": 0.5,
      "start": 2.0
    },
    {
      "pitch": 36,
      "velocity": 127,
      "duration": 0.5,
      "start": 2.5
    },
    {
      "pitch": 36,
      "velocity": 127,
      "duration": 0.5,
      "start": 3.0
    },
    {
      "pitch": 36,
      "velocity": 127,
      "duration": 0.5,
      "start": 3.5
    },
    {
      "pitch": 48,
      "velocity": 90,
      "duration": 0.25,
      "start": 0.25
    },
    {
      "pitch": 48,
      "velocity": 90,
      "duration": 0.25,
      "start": 1.25
    },
    {
      "pitch": 48,
      "velocity": 90,
      "duration": 0.25,
      "start": 2.25
    },
    {
      "pitch": 48,
      "velocity": 90,
      "duration": 0.25,
      "start": 3.25
    },
    {
      "pitch": 57,
      "velocity": 110,
      "duration": 0.5,
      "start": 4.0
    },
    {
      "pitch": 57,
      "velocity": 110,
      "duration": 0.5,
      "start": 4.5
    },
    {
      "pitch": 57,
      "velocity": 110,
      "duration": 0.5,
      "start": 5.0
    },
    {
      "pitch": 57,
      "velocity": 110,
      "duration": 0.5,
      "start": 5.5
    },
    {
      "pitch": 36,
      "velocity": 127,
      "duration": 0.5,
      "start": 6.0
    },
    {
      "pitch": 36,
      "velocity": 127,
      "duration": 0.5,
      "start": 6.5
    },
    {
      "pitch": 36,
      "velocity": 127,
      "duration": 0.5,
      "start": 7.0
    },
    {
      "pitch": 36,
      "velocity": 127,
      "duration": 0.5,
      "start": 7.5
    },
    {
      "pitch": 48,
      "velocity": 90,
      "duration": 0.25,
      "start": 6.25
    },
    {
      "pitch": 48,
      "velocity": 90,
      "duration": 0.25,
      "start": 7.25
    },
    {
      "pitch": 35,
      "velocity": 100,
      "duration": 1.0,
      "start": 0.75
    },
    {
      "pitch": 46,
      "velocity": 80,
      "duration": 0.5,
      "start": 1.75
    },
    {
      "pitch": 35,
      "velocity": 100,
      "duration": 1.0,
      "start": 4.75
    },
    {
      "pitch": 46,
      "velocity": 80,
      "duration": 0.5,
      "start": 5.75
    }
  ]
}